ply
format ascii 1.0
comment VCGLIB generated
element vertex 150
property float x
property float y
property float z
element face 192
property list uchar int vertex_indices
end_header
-2.15147 0.268934 2.32835 
-2.15147 0.268934 1.16418 
-2.15147 0.134466 1.16418 
2.15147 0.268934 2.32835 
2.15147 0.268934 1.16418 
1.07573 0.268934 1.16418 
2.15147 -0.268934 2.32835 
2.15147 -0.268934 1.16418 
2.15147 -0.134466 1.16418 
-2.15147 -0.268934 2.32835 
-2.15147 -0.268934 1.16418 
-1.07573 -0.268934 1.16418 
-2.15147 0.268934 -2.32835 
-1.07573 0.268934 -2.32835 
-1.07573 0.134466 -2.32835 
2.15147 0.268934 2.32835 
1.07573 0.268934 2.32835 
1.07573 0.134466 2.32835 
-2.15147 -0.268934 2.32835 
-2.15147 -0.134466 2.32835 
-2.15147 -0.268934 1.16418 
-2.15147 0.268934 2.32835 
-1.07573 0.268934 2.32835 
-2.15147 0.268934 1.16418 
2.15147 0.268934 2.32835 
2.15147 0.134466 2.32835 
2.15147 0.268934 1.16418 
2.15147 -0.268934 2.32835 
1.07573 -0.268934 2.32835 
2.15147 -0.268934 1.16418 
-2.15147 -0.268934 -2.32835 
-2.15147 -0.134466 -2.32835 
-1.07573 -0.268934 -2.32835 
2.15147 -0.268934 2.32835 
2.15147 -0.134466 2.32835 
1.07573 -0.268934 2.32835 
-2.15147 2.01166e-007 9.98378e-007 
-2.15147 2.01166e-007 -1.16418 
-2.15147 -0.134466 -1.16418 
-2.15147 0.134466 9.98378e-007 
-2.15147 0.268934 9.98378e-007 
-2.15147 0.268934 -1.16418 
-2.15147 0.134466 -1.16418 
4.09782e-008 0.268934 9.98378e-007 
4.09782e-008 0.268934 -1.16418 
-1.07573 0.268934 -1.16418 
1.07573 0.268934 9.98378e-007 
2.15147 0.268934 9.98378e-007 
2.15147 0.268934 -1.16418 
1.07573 0.268934 -1.16418 
2.15147 2.01166e-007 9.98378e-007 
2.15147 2.01166e-007 -1.16418 
2.15147 0.134466 -1.16418 
2.15147 -0.134466 9.98378e-007 
2.15147 -0.268934 9.98378e-007 
2.15147 -0.268934 -1.16418 
2.15147 -0.134466 -1.16418 
4.09782e-008 -0.268934 9.98378e-007 
4.09782e-008 -0.268934 -1.16418 
1.07573 -0.268934 -1.16418 
-1.07573 -0.268934 9.98378e-007 
-2.15147 -0.268934 9.98378e-007 
-2.15147 -0.268934 -1.16418 
-1.07573 -0.268934 -1.16418 
4.09782e-008 2.01166e-007 -2.32835 
1.07573 2.01166e-007 -2.32835 
1.07573 -0.134466 -2.32835 
4.09782e-008 0.134466 -2.32835 
4.09782e-008 0.268934 -2.32835 
1.07573 0.268934 -2.32835 
1.07573 0.134466 -2.32835 
4.09782e-008 2.01166e-007 2.32835 
-1.07573 2.01166e-007 2.32835 
-1.07573 -0.134466 2.32835 
4.09782e-008 0.134466 2.32835 
4.09782e-008 0.268934 2.32835 
-1.07573 0.268934 2.32835 
-1.07573 0.134466 2.32835 
-2.15147 -0.268934 9.98378e-007 
-2.15147 -0.134466 9.98378e-007 
-2.15147 -0.268934 -1.16418 
-2.15147 -0.134466 1.16418 
-2.15147 2.01166e-007 2.32835 
-2.15147 0.134466 2.32835 
-2.15147 2.01166e-007 1.16418 
-2.15147 0.268934 9.98378e-007 
-1.07573 0.268934 9.98378e-007 
-2.15147 0.268934 -1.16418 
-1.07573 0.268934 1.16418 
4.09782e-008 0.268934 2.32835 
1.07573 0.268934 2.32835 
4.09782e-008 0.268934 1.16418 
2.15147 0.268934 9.98378e-007 
2.15147 0.134466 9.98378e-007 
2.15147 0.268934 -1.16418 
2.15147 0.134466 1.16418 
2.15147 2.01166e-007 2.32835 
2.15147 -0.134466 2.32835 
2.15147 2.01166e-007 1.16418 
2.15147 -0.268934 9.98378e-007 
1.07573 -0.268934 9.98378e-007 
2.15147 -0.268934 -1.16418 
1.07573 -0.268934 1.16418 
4.09782e-008 -0.268934 2.32835 
-1.07573 -0.268934 2.32835 
4.09782e-008 -0.268934 1.16418 
4.09782e-008 -0.268934 -2.32835 
4.09782e-008 -0.134466 -2.32835 
1.07573 -0.268934 -2.32835 
-1.07573 -0.134466 -2.32835 
-2.15147 2.01166e-007 -2.32835 
-2.15147 0.134466 -2.32835 
-1.07573 2.01166e-007 -2.32835 
4.09782e-008 -0.268934 2.32835 
4.09782e-008 -0.134466 2.32835 
-1.07573 -0.268934 2.32835 
1.07573 -0.134466 2.32835 
2.15147 2.01166e-007 2.32835 
2.15147 0.134466 2.32835 
1.07573 2.01166e-007 2.32835 
-2.15147 -0.134466 -2.32835 
-2.15147 -0.268934 -2.32835 
-2.15147 2.01166e-007 -2.32835 
-2.15147 0.134466 -2.32835 
-2.15147 0.268934 -2.32835 
-1.07573 0.268934 -2.32835 
-2.15147 0.268934 -2.32835 
4.09782e-008 0.268934 -2.32835 
1.07573 0.268934 -2.32835 
2.15147 0.268934 -2.32835 
2.15147 0.134466 -2.32835 
2.15147 0.268934 -2.32835 
2.15147 2.01166e-007 -2.32835 
2.15147 -0.134466 -2.32835 
2.15147 -0.268934 -2.32835 
1.07573 -0.268934 -2.32835 
2.15147 -0.268934 -2.32835 
4.09782e-008 -0.268934 -2.32835 
-1.07573 -0.268934 -2.32835 
-2.15147 -0.268934 -2.32835 
2.15147 -0.134466 -2.32835 
2.15147 -0.268934 -2.32835 
2.15147 2.01166e-007 -2.32835 
2.15147 0.134466 -2.32835 
2.15147 0.268934 -2.32835 
-2.15147 -0.134466 2.32835 
-2.15147 -0.268934 2.32835 
-2.15147 2.01166e-007 2.32835 
-2.15147 0.134466 2.32835 
-2.15147 0.268934 2.32835 
3 0 1 2 
3 3 4 5 
3 6 7 8 
3 9 10 11 
3 12 13 14 
3 15 16 17 
3 18 19 20 
3 21 22 23 
3 24 25 26 
3 27 28 29 
3 30 31 32 
3 33 34 35 
3 36 37 38 
3 36 39 37 
3 40 41 42 
3 43 44 45 
3 43 46 44 
3 47 48 49 
3 50 51 52 
3 50 53 51 
3 54 55 56 
3 57 58 59 
3 57 60 58 
3 61 62 63 
3 64 65 66 
3 64 67 65 
3 68 69 70 
3 71 72 73 
3 71 74 72 
3 75 76 77 
3 78 79 80 
3 78 81 79 
3 82 83 84 
3 85 86 87 
3 85 88 86 
3 89 90 91 
3 92 93 94 
3 92 95 93 
3 96 97 98 
3 99 100 101 
3 99 102 100 
3 103 104 105 
3 106 107 108 
3 106 109 107 
3 110 111 112 
3 113 114 115 
3 113 116 114 
3 117 118 119 
3 2 39 36 
3 2 1 39 
3 1 40 39 
3 5 46 43 
3 5 4 46 
3 4 47 46 
3 8 53 50 
3 8 7 53 
3 7 54 53 
3 11 60 57 
3 11 10 60 
3 10 61 60 
3 14 67 64 
3 14 13 67 
3 13 68 67 
3 17 74 71 
3 17 16 74 
3 16 75 74 
3 20 81 78 
3 20 19 81 
3 19 82 81 
3 23 88 85 
3 23 22 88 
3 22 89 88 
3 26 95 92 
3 26 25 95 
3 25 96 95 
3 29 102 99 
3 29 28 102 
3 28 103 102 
3 32 109 106 
3 32 31 109 
3 31 110 109 
3 35 116 113 
3 35 34 116 
3 34 117 116 
3 38 120 121 
3 38 37 120 
3 37 122 120 
3 37 42 122 
3 37 39 42 
3 39 40 42 
3 42 123 122 
3 42 41 123 
3 41 124 123 
3 45 125 126 
3 45 44 125 
3 44 127 125 
3 44 49 127 
3 44 46 49 
3 46 47 49 
3 49 128 127 
3 49 48 128 
3 48 129 128 
3 52 130 131 
3 52 51 130 
3 51 132 130 
3 51 56 132 
3 51 53 56 
3 53 54 56 
3 56 133 132 
3 56 55 133 
3 55 134 133 
3 59 135 136 
3 59 58 135 
3 58 137 135 
3 58 63 137 
3 58 60 63 
3 60 61 63 
3 63 138 137 
3 63 62 138 
3 62 139 138 
3 66 140 141 
3 66 65 140 
3 65 142 140 
3 65 70 142 
3 65 67 70 
3 67 68 70 
3 70 143 142 
3 70 69 143 
3 69 144 143 
3 73 145 146 
3 73 72 145 
3 72 147 145 
3 72 77 147 
3 72 74 77 
3 74 75 77 
3 77 148 147 
3 77 76 148 
3 76 149 148 
3 80 38 121 
3 80 79 38 
3 79 36 38 
3 79 84 36 
3 79 81 84 
3 81 82 84 
3 84 2 36 
3 84 83 2 
3 83 0 2 
3 87 45 126 
3 87 86 45 
3 86 43 45 
3 86 91 43 
3 86 88 91 
3 88 89 91 
3 91 5 43 
3 91 90 5 
3 90 3 5 
3 94 52 131 
3 94 93 52 
3 93 50 52 
3 93 98 50 
3 93 95 98 
3 95 96 98 
3 98 8 50 
3 98 97 8 
3 97 6 8 
3 101 59 136 
3 101 100 59 
3 100 57 59 
3 100 105 57 
3 100 102 105 
3 102 103 105 
3 105 11 57 
3 105 104 11 
3 104 9 11 
3 108 66 141 
3 108 107 66 
3 107 64 66 
3 107 112 64 
3 107 109 112 
3 109 110 112 
3 112 14 64 
3 112 111 14 
3 111 12 14 
3 115 73 146 
3 115 114 73 
3 114 71 73 
3 114 119 71 
3 114 116 119 
3 116 117 119 
3 119 17 71 
3 119 118 17 
3 118 15 17 
